<svg width="256" height="48" viewBox="0 0 256 48" fill="none" xmlns="http://www.w3.org/2000/svg">
<path d="M65.3639 15.7278C66.781 12.5116 69.4446 10.9036 73.3521 10.9036V16.973C71.208 16.8342 69.3402 17.3442 67.7499 18.5028C66.1584 19.6614 65.3639 21.5719 65.3639 24.2342V37.3052H59.7617V11.3696H65.3639V15.7278Z" fill="white"/>
<path d="M96.8495 11.3696H102.452V37.3052H96.8495V33.5708C94.7398 36.5106 91.7146 37.98 87.7726 37.98C84.2114 37.98 81.1684 36.6577 78.6436 34.012C76.12 31.3662 74.8571 28.1418 74.8571 24.3374C74.8571 20.4999 76.1188 17.2659 78.6436 14.638C81.1684 12.01 84.2114 10.696 87.7726 10.696C91.7146 10.696 94.741 12.1488 96.8495 15.053V11.3696ZM82.7931 30.2764C84.349 31.8489 86.3033 32.6363 88.655 32.6363C91.0066 32.6363 92.9598 31.8489 94.5157 30.2764C96.0716 28.7027 96.8495 26.7234 96.8495 24.3374C96.8495 21.9514 96.0716 19.9721 94.5157 18.3985C92.9598 16.8248 91.0054 16.0385 88.655 16.0385C86.3033 16.0385 84.349 16.8248 82.7931 18.3985C81.2372 19.971 80.4592 21.9514 80.4592 24.3374C80.4592 26.7234 81.2372 28.7027 82.7931 30.2764Z" fill="white"/>
<path d="M123.666 10.696C127.227 10.696 130.27 12.0183 132.795 14.6641C135.32 17.3098 136.582 20.5342 136.582 24.3374C136.582 28.1762 135.32 31.4089 132.795 34.0369C130.272 36.6648 127.229 37.9788 123.666 37.9788C119.724 37.9788 116.698 36.5261 114.589 33.6218V47.6782H108.987V11.3696H114.589V15.1052C116.699 12.1654 119.724 10.696 123.666 10.696ZM116.923 30.2776C118.479 31.8501 120.433 32.6375 122.784 32.6375C125.136 32.6375 127.09 31.8501 128.646 30.2776C130.202 28.7039 130.98 26.7246 130.98 24.3386C130.98 21.9526 130.202 19.9733 128.646 18.3996C127.09 16.826 125.136 16.0397 122.784 16.0397C120.432 16.0397 118.479 16.826 116.923 18.3996C115.367 19.9721 114.589 21.9526 114.589 24.3386C114.589 26.7246 115.367 28.7039 116.923 30.2776Z" fill="white"/>
<path d="M155.306 10.6959C158.28 10.6959 160.684 11.647 162.516 13.5492C164.35 15.4502 165.266 18.0615 165.266 21.3809V37.3051H159.664V21.9525C159.664 20.0159 159.146 18.5288 158.108 17.4911C157.071 16.4535 155.653 15.9352 153.856 15.9352C151.885 15.9352 150.294 16.5495 149.084 17.7769C147.874 19.0043 147.268 20.8804 147.268 23.4052V37.3063H141.666V0.997681H147.268V14.6912C148.963 12.0289 151.643 10.6971 155.308 10.6971L155.306 10.6959Z" fill="white"/>
<path d="M171.282 37.3052V11.3696H176.883V37.3052H171.282Z" fill="white"/>
<path d="M176.598 7.09086C175.888 7.80002 175.05 8.15462 174.082 8.15462C173.115 8.15462 172.276 7.80002 171.567 7.09086C170.858 6.38169 170.503 5.54327 170.503 4.57439C170.503 3.6067 170.848 2.76827 171.541 2.05911C172.232 1.34994 173.08 0.995361 174.083 0.995361C175.087 0.995361 175.933 1.34994 176.625 2.05911C177.316 2.76827 177.662 3.6067 177.662 4.57439C177.662 5.54327 177.308 6.38169 176.599 7.09086H176.598Z" fill="white"/>
<path d="M193.445 16.7654H187.013V29.2138C187.013 30.2858 187.256 31.0555 187.74 31.5227C188.224 31.99 188.941 32.2485 189.893 32.3007C190.844 32.3517 192.028 32.3434 193.445 32.2746V37.3063C189.157 37.8258 186.08 37.4534 184.212 36.1916C182.346 34.9286 181.411 32.6043 181.411 29.215V22.166V16.7666V11.372V8.86499V5.7698L187.013 4.11072V11.372H193.445V16.7666V16.7654Z" fill="white"/>
<path d="M216.268 11.3696H221.87V37.3052H216.268V33.9846C214.573 36.6482 211.893 37.9787 208.228 37.9787C205.253 37.9787 202.851 37.0265 201.019 35.1255C199.185 33.2245 198.269 30.6131 198.269 27.2926V11.3684H203.871V26.7222C203.871 28.6588 204.39 30.1459 205.427 31.1824C206.464 32.22 207.883 32.7383 209.68 32.7383C211.651 32.7383 213.242 32.124 214.452 30.8977C215.663 29.6703 216.268 27.7943 216.268 25.2695V11.3684V11.3696Z" fill="white"/>
<path d="M243.085 10.696C246.646 10.696 249.689 12.0183 252.214 14.6641C254.739 17.3098 256 20.5342 256 24.3374C256 28.1762 254.739 31.4089 252.214 34.0369C249.69 36.6648 246.647 37.9788 243.085 37.9788C239.143 37.9788 236.116 36.5261 234.008 33.6218V47.6782H228.406V11.3696H234.008V15.1052C236.118 12.1654 239.143 10.696 243.085 10.696ZM236.342 30.2776C237.898 31.8501 239.852 32.6375 242.202 32.6375C244.554 32.6375 246.508 31.8501 248.064 30.2776C249.62 28.7039 250.398 26.7246 250.398 24.3386C250.398 21.9526 249.62 19.9733 248.064 18.3996C246.508 16.826 244.554 16.0397 242.202 16.0397C239.851 16.0397 237.898 16.826 236.342 18.3996C234.786 19.9721 234.008 21.9526 234.008 24.3386C234.008 26.7246 234.786 28.7039 236.342 30.2776Z" fill="white"/>
<path d="M54.679 18.5289V21.0192C54.679 25.9988 53.0365 30.07 49.7516 33.234C46.4655 36.3979 42.1785 37.9799 36.8882 37.9799C31.286 37.9799 26.661 36.1643 23.0132 32.5331C21.0683 30.5977 19.6417 28.4252 18.7333 26.0166H25.2688C25.7988 26.9013 26.4463 27.7255 27.2136 28.4868C29.6862 30.9416 32.9273 32.169 36.9392 32.169C40.1553 32.169 42.775 31.4172 44.7969 29.9134C46.8201 28.4097 48.1079 26.3949 48.6618 23.8701H36.5241V18.5277H54.679V18.5289ZM26.9124 2.77776C29.742 1.14123 32.9628 0.321777 36.5763 0.321777C39.9656 0.321777 43.0608 1.09973 45.8619 2.65563C48.6629 4.21153 50.8414 6.30344 52.3973 8.93138L47.2624 11.8878C46.2935 10.1588 44.8586 8.76654 42.9576 7.71228C41.0554 6.65802 38.9291 6.1303 36.5775 6.1303C32.7743 6.1303 29.6447 7.37549 27.1887 9.86469C27.095 9.95956 27.0037 10.0556 26.9124 10.1529V2.77658V2.77776Z" fill="white"/>
<path fill-rule="evenodd" clip-rule="evenodd" d="M23.9607 22.8918H17.9423V0.321777H23.9607V22.8918Z" fill="#00C093"/>
<path fill-rule="evenodd" clip-rule="evenodd" d="M14.9906 33.4735H8.97095V10.9036H14.9906V33.4735Z" fill="#00C093"/>
<path fill-rule="evenodd" clip-rule="evenodd" d="M6.01928 25.1343H0.000854492V2.56311H6.01928V25.1343Z" fill="#00C093"/>
</svg>
