<svg width="256" height="48" viewBox="0 0 256 48" fill="none" xmlns="http://www.w3.org/2000/svg">
<path d="M65.3636 15.406C66.7815 12.19 69.4445 10.5811 73.3517 10.5811V16.6502C71.208 16.5119 69.3399 17.0217 67.7501 18.1804C66.1594 19.3391 65.3636 21.2495 65.3636 23.9116V36.983H59.762V11.0476H65.3636V15.4051V15.406Z" fill="black"/>
<path d="M96.8486 11.0487H102.45V36.984H96.8486V33.2497C94.7395 36.1892 91.7135 37.6589 87.7708 37.6589C84.2092 37.6589 81.166 36.336 78.6422 33.6912C76.1184 31.0455 74.856 27.8208 74.856 24.0173C74.856 20.1792 76.1184 16.946 78.6422 14.3184C81.167 11.69 84.2102 10.3757 87.7708 10.3757C91.7126 10.3757 94.7385 11.8282 96.8486 14.7332V11.0497V11.0487ZM82.7913 29.9559C84.3475 31.5293 86.302 32.3156 88.6531 32.3156C91.0041 32.3156 92.9577 31.5284 94.5139 29.9559C96.07 28.3824 96.8476 26.4029 96.8476 24.0164C96.8476 21.6308 96.0691 19.6503 94.5139 18.0778C92.9577 16.5044 91.0041 15.7181 88.6531 15.7181C86.302 15.7181 84.3475 16.5044 82.7913 18.0778C81.2352 19.6513 80.4576 21.6308 80.4576 24.0164C80.4576 26.4029 81.2361 28.3824 82.7913 29.9559Z" fill="black"/>
<path d="M123.665 10.3747C127.227 10.3747 130.27 11.6976 132.794 14.3424C135.319 16.9882 136.58 20.2118 136.58 24.0154C136.58 27.8544 135.318 31.0867 132.794 33.7152C130.27 36.3437 127.227 37.6579 123.665 37.6579C119.723 37.6579 116.698 36.2054 114.588 33.3005V47.3568H108.986V11.0477H114.588V14.7831C116.697 11.8435 119.723 10.3738 123.665 10.3738V10.3747ZM116.922 29.9559C118.478 31.5293 120.432 32.3155 122.783 32.3155C125.135 32.3155 127.089 31.5283 128.645 29.9559C130.201 28.3824 130.979 26.4029 130.979 24.0163C130.979 21.6307 130.201 19.6503 128.645 18.0778C127.089 16.5043 125.135 15.7181 122.783 15.7181C120.432 15.7181 118.478 16.5043 116.922 18.0778C115.366 19.6512 114.589 21.6307 114.589 24.0163C114.589 26.4029 115.366 28.3824 116.922 29.9559Z" fill="black"/>
<path d="M155.305 10.3748C158.279 10.3748 160.683 11.3261 162.515 13.2279C164.347 15.1296 165.264 17.7399 165.264 21.0596V36.984H159.661V21.6308C159.661 19.6945 159.143 18.2074 158.105 17.1697C157.068 16.1319 155.651 15.6135 153.852 15.6135C151.881 15.6135 150.291 16.2279 149.08 17.4557C147.871 18.6836 147.265 20.5594 147.265 23.0832V36.984H141.663V0.674927H147.265V14.3684C148.959 11.7053 151.64 10.3748 155.305 10.3748Z" fill="black"/>
<path d="M171.281 36.9839V11.0486H176.883V36.9839H171.281Z" fill="black"/>
<path d="M176.597 6.76997C175.888 7.47941 175.049 7.83269 174.082 7.83269C173.114 7.83269 172.275 7.47845 171.566 6.76997C170.858 6.06149 170.503 5.22245 170.503 4.25381C170.503 3.28613 170.848 2.44709 171.539 1.73861C172.231 1.02917 173.078 0.674927 174.082 0.674927C175.084 0.674927 175.931 1.02917 176.624 1.73861C177.315 2.44709 177.66 3.28613 177.66 4.25381C177.66 5.22245 177.306 6.06149 176.597 6.76997Z" fill="black"/>
<path d="M193.445 16.4439H187.013V28.8922C187.013 29.9645 187.256 30.7335 187.74 31.201C188.223 31.6675 188.941 31.9268 189.892 31.9786C190.843 32.0304 192.027 32.0218 193.445 31.9517V36.9831C189.157 37.5024 186.08 37.1299 184.212 35.8685C182.344 34.6061 181.411 32.281 181.411 28.8922V21.8429V16.4429V11.0477V8.54114V5.4461L187.013 3.78625V11.0477H193.445V16.4429V16.4439Z" fill="black"/>
<path d="M216.268 11.0486H221.869V36.9839H216.268V33.6642C214.573 36.3273 211.893 37.6588 208.228 37.6588C205.254 37.6588 202.851 36.7075 201.018 34.8057C199.186 32.9039 198.269 30.2927 198.269 26.9731V11.0486H203.87V26.4028C203.87 28.3391 204.39 29.8262 205.427 30.863C206.464 31.9007 207.882 32.4191 209.68 32.4191C211.651 32.4191 213.242 31.8047 214.452 30.5779C215.662 29.35 216.268 27.4742 216.268 24.9494V11.0486Z" fill="black"/>
<path d="M243.085 10.3747C246.646 10.3747 249.689 11.6976 252.213 14.3424C254.738 16.9882 255.999 20.2118 255.999 24.0154C255.999 27.8544 254.737 31.0867 252.213 33.7152C249.689 36.3437 246.646 37.6579 243.085 37.6579C239.142 37.6579 236.117 36.2054 234.007 33.3005V47.3568H228.405V11.0477H234.007V14.7831C236.116 11.8435 239.142 10.3738 243.085 10.3738V10.3747ZM236.341 29.9559C237.898 31.5293 239.851 32.3155 242.202 32.3155C244.554 32.3155 246.508 31.5283 248.064 29.9559C249.62 28.3824 250.398 26.4029 250.398 24.0163C250.398 21.6307 249.62 19.6503 248.064 18.0778C246.508 16.5043 244.554 15.7181 242.202 15.7181C239.851 15.7181 237.898 16.5043 236.341 18.0778C234.785 19.6512 234.008 21.6307 234.008 24.0163C234.008 26.4029 234.785 28.3824 236.341 29.9559Z" fill="black"/>
<path d="M54.6787 18.2074V20.6976C54.6787 25.6771 53.0361 29.7485 49.751 32.9127C46.4659 36.0768 42.1775 37.6589 36.887 37.6589C31.2854 37.6589 26.6601 35.8426 23.0121 32.2128C21.0671 30.2765 19.6406 28.104 18.7324 25.6963H25.2681C25.798 26.5814 26.446 27.4051 27.2131 28.1674C29.686 30.6221 32.927 31.8499 36.9388 31.8499C40.1548 31.8499 42.7737 31.0983 44.7964 29.5939C46.8191 28.0896 48.1065 26.0755 48.6614 23.5507H36.5231V18.2083H54.6777L54.6787 18.2074ZM26.9116 2.45666C29.7417 0.819864 32.9625 0.000976562 36.5759 0.000976562C39.9647 0.000976562 43.0598 0.779542 45.8611 2.33474C48.6623 3.8909 50.8406 5.98273 52.3967 8.61121L47.2617 11.568C46.2931 9.83906 44.8579 8.44706 42.9561 7.39202C41.0543 6.33794 38.927 5.80994 36.5759 5.80994C32.7724 5.80994 29.6428 7.05505 27.1871 9.54529C27.0931 9.64033 27.0019 9.73633 26.9116 9.83329V2.45666Z" fill="black"/>
<path fill-rule="evenodd" clip-rule="evenodd" d="M23.9606 22.5706H17.9414V0H23.9606V22.5706Z" fill="#515466"/>
<path fill-rule="evenodd" clip-rule="evenodd" d="M14.9894 33.1526H8.97021V10.582H14.9894V33.1526Z" fill="#515466"/>
<path fill-rule="evenodd" clip-rule="evenodd" d="M6.0192 24.8121H0V2.24158H6.0192V24.8121Z" fill="#515466"/>
</svg>
